<svg xmlns="http://www.w3.org/2000/svg" xmlns:xlink="http://www.w3.org/1999/xlink" version="1.0"
    preserveAspectRatio="xMidYMid meet" color-interpolation-filters="sRGB" style="margin: auto;"
    viewBox="76.14 70.95 187.71 108.1">
    <g transform="translate(76.14440155029297,70.9482192993164)">
        <g transform="translate(63.85559844970703,0)">
            <g>
                <rect fill-opacity="0" stroke-width="2" x="0" y="0" width="59.99999999999999"
                    height="67.72926355714091" />
                <svg x="0" y="0" width="59.99999999999999" height="67.72926355714091" style="overflow: visible;"
                    id="filledSvg1">
                    <svg xmlns="http://www.w3.org/2000/svg" xmlns:xlink="http://www.w3.org/1999/xlink" version="1.1"
                        x="0px" y="0px"
                        viewBox="7.9999847412109375 2.924999713897705 83.60501861572266 94.37499237060547"
                        xml:space="preserve">
                        <g transform="matrix(-1,0,0,1,99.605,0)">
                            <path
                                d="M49.9,30l-1.1,0c-7.7,0.2-13.5,2.2-17.4,6.1c-4.7,4.8-4.7,10.5-4.7,10.8c0,0.1,0.1,0.3,0.3,0.3h44.8c0.1,0,0.3-0.1,0.3-0.3  c0-0.2,0-6-4.7-10.8C63.4,32.2,57.6,30.1,49.9,30z M32.7,44.6c-0.8,0-1.4-0.6-1.4-1.4c0-0.8,0.6-1.4,1.4-1.4c0.8,0,1.4,0.6,1.4,1.4  C34.1,44,33.5,44.6,32.7,44.6z M41.4,36.3c-0.8,0-1.4-0.6-1.4-1.4c0-0.8,0.6-1.4,1.4-1.4s1.4,0.6,1.4,1.4  C42.7,35.7,42.1,36.3,41.4,36.3z M65.5,41.6c-0.8,0-1.4-0.6-1.4-1.4s0.6-1.4,1.4-1.4s1.4,0.6,1.4,1.4S66.2,41.6,65.5,41.6z" />
                            <path
                                d="M30.6,65.8h37.4c1.9,0,3.5-1.2,3.5-2.7v-2.5H59.8l-21.1,3.2l-8.1-3.2h-3.5V63C27.2,64.5,28.7,65.8,30.6,65.8z" />
                            <path
                                d="M88.1,23.9l-34.6-20c-2.2-1.3-5-1.3-7.2,0l-34.6,20C9.4,25.2,8,27.6,8,30.1v40c0,2.6,1.4,5,3.6,6.2l34.6,20  c1.1,0.6,2.3,1,3.6,1s2.5-0.3,3.6-1l34.6-20c2.2-1.3,3.6-3.7,3.6-6.2v-40C91.7,27.6,90.3,25.2,88.1,23.9z M73.8,63  c0,2.8-2.6,5-5.8,5H30.6c-3.2,0-5.8-2.3-5.8-5v-4.9h49V63z M25.2,53.8c0-1.1,0.9-1.9,1.9-1.9h44.4c1.1,0,1.9,0.9,1.9,1.9  c0,1.1-0.9,1.9-1.9,1.9H27.1C26,55.8,25.2,54.9,25.2,53.8z M71.7,49.5H27c-1.4,0-2.6-1.2-2.6-2.6c0-0.3,0-7,5.4-12.4  c4.3-4.3,10.7-6.6,18.9-6.8c0.1,0,1.1,0,1.3,0c8.3,0.2,14.6,2.5,18.9,6.8c5.4,5.5,5.4,12.2,5.4,12.4C74.3,48.3,73.1,49.5,71.7,49.5z  " />
                        </g>
                    </svg>
                </svg>
            </g>
        </g>
        <g transform="translate(0,74.72926330566406)">
            <g transform="translate(0,0)">
                <g transform="scale(0.8699999999999999)">
                    <g>
                        <path
                            d="M19.21-21.56L1.07-21.56 1.07-17.77 7.92-17.77 7.92 0 12.33 0 12.33-17.77 19.21-17.77ZM36.61-21.56L36.61-11.07 26.67-11.07 26.67-21.56 22.42-21.56 22.42 0 26.67 0 26.67-7.31 36.61-7.31 36.61 0 40.89 0 40.89-21.56ZM49.61-3.79L49.61-8.63 59.37-8.63 59.37-12.3 49.61-12.3 49.61-17.77 61.26-17.77 61.26-21.56 45.36-21.56 45.36 0 61.91 0 61.91-3.79ZM94.66-10.77C94.66-16.73 89.8-21.56 83.81-21.56L75.27-21.56 75.27 0 84.51 0C90.17 0 94.66-5.05 94.66-10.77ZM79.52-4.01L79.52-17.56 83.81-17.56C87.42-17.56 90.35-14.5 90.35-10.77 90.35-7.16 87.57-4.01 84.14-4.01ZM102.77-21.56L98.37-21.56 98.37 0 102.77 0ZM115.77-12.79C112.53-13.52 111-14.16 111-15.69 111-17.04 112.22-18.02 114.42-18.02 116.44-18.02 119.1-17.37 121-16.58L122.77-20.06C120.66-20.98 117.79-21.81 114.51-21.81 109.59-21.81 106.56-19.12 106.56-15.32 106.56-11.07 110.14-9.82 114.58-8.81 117.73-8.07 119.16-7.43 119.16-5.96 119.16-4.37 117.76-3.52 115.4-3.52 112.71-3.52 110.72-3.79 107.88-5.17L106.29-1.77C109.71-0.06 111.58 0.28 115.25 0.28 120.27 0.28 123.6-2.17 123.6-6.33 123.6-10.28 120.42-11.75 115.77-12.79ZM143.42-21.56L125.28-21.56 125.28-17.77 132.13-17.77 132.13 0 136.54 0 136.54-17.77 143.42-17.77ZM160 0L165.23 0 160.21-6.42C163.06-7.65 164.58-10.09 164.58-13.79 164.58-17.83 162.44-21.56 156.14-21.56L146.63-21.56 146.63 0 151 0 151-5.54 155.01-5.54C155.29-5.54 155.59-5.54 155.84-5.57ZM151-17.77L155.44-17.77C158.83-17.77 160-15.69 160-13.46 160-10.92 158.34-9.15 154.86-9.15L151-9.15ZM172.63-21.56L168.22-21.56 168.22 0 172.63 0ZM187.68-3.88C183.92-3.88 180.83-6.7 180.83-10.77 180.83-14.9 183.92-17.65 187.68-17.65 189.94-17.65 191.96-16.55 193.18-14.8L196.58-17.68C194.47-20.19 191.29-21.81 187.68-21.81 181.41-21.81 176.3-16.85 176.3-10.77 176.3-4.68 181.41 0.24 187.68 0.24 191.29 0.24 194.47-1.35 196.58-3.85L193.18-6.73C191.96-4.99 189.94-3.88 187.68-3.88ZM216.83-21.56L198.69-21.56 198.69-17.77 205.54-17.77 205.54 0 209.94 0 209.94-17.77 216.83-17.77Z"
                            transform="translate(-1.0700000524520874, 21.809999465942383)" />
                    </g>
                </g>
            </g>
            <g transform="translate(5,25.218299865722656)">
                <rect x="0" height="1" y="3.580000400543213" width="58.005598068237305" />
                <rect height="1" y="3.580000400543213" width="58.005598068237305" x="119.70559883117676" />
                <g transform="translate(61.005598068237305,0)">
                    <g transform="scale(1)">
                        <path
                            d="M1.10-1.72L0.50-1.02C0.85-0.66 1.26-0.38 1.73-0.17C2.20 0.04 2.71 0.14 3.26 0.14C3.68 0.14 4.05 0.09 4.38-0.03C4.71-0.15 4.99-0.31 5.22-0.51C5.45-0.71 5.63-0.95 5.75-1.22C5.88-1.50 5.94-1.79 5.94-2.10C5.94-2.39 5.90-2.64 5.81-2.86C5.73-3.08 5.62-3.27 5.47-3.44C5.33-3.60 5.16-3.75 4.96-3.87C4.76-3.99 4.54-4.10 4.32-4.20L3.20-4.68C3.04-4.74 2.89-4.81 2.74-4.89C2.58-4.97 2.44-5.05 2.32-5.15C2.19-5.25 2.09-5.37 2.01-5.50C1.93-5.63 1.90-5.80 1.90-5.99C1.90-6.35 2.03-6.63 2.30-6.83C2.57-7.04 2.92-7.14 3.36-7.14C3.73-7.14 4.06-7.07 4.35-6.94C4.64-6.81 4.91-6.63 5.15-6.40L5.69-7.04C5.41-7.33 5.07-7.57 4.67-7.75C4.27-7.93 3.83-8.02 3.36-8.02C3-8.02 2.67-7.96 2.37-7.86C2.07-7.76 1.81-7.61 1.59-7.42C1.37-7.23 1.20-7.01 1.07-6.76C0.95-6.50 0.89-6.22 0.89-5.93C0.89-5.64 0.94-5.39 1.03-5.17C1.13-4.95 1.25-4.76 1.40-4.60C1.56-4.44 1.73-4.30 1.92-4.19C2.11-4.08 2.30-3.98 2.48-3.90L3.61-3.41C3.80-3.32 3.97-3.24 4.13-3.16C4.29-3.08 4.43-2.99 4.54-2.89C4.66-2.79 4.75-2.67 4.82-2.53C4.89-2.39 4.92-2.22 4.92-2.02C4.92-1.63 4.78-1.32 4.49-1.09C4.20-0.85 3.80-0.73 3.28-0.73C2.87-0.73 2.47-0.82 2.09-1.00C1.71-1.18 1.38-1.42 1.10-1.72ZM7.49-7.87L7.49 0L8.48 0L8.48-7.87ZM10.64-7.87L10.64 0L11.59 0L11.59-4.12C11.59-4.53 11.58-4.95 11.55-5.36C11.52-5.77 11.49-6.18 11.46-6.58L11.51-6.58L12.36-4.96L15.22 0L16.25 0L16.25-7.87L15.30-7.87L15.30-3.80C15.30-3.39 15.31-2.97 15.34-2.54C15.37-2.11 15.40-1.70 15.42-1.30L15.37-1.30L14.52-2.93L11.68-7.87ZM17.95-3.94C17.95-3.30 18.04-2.72 18.21-2.21C18.38-1.71 18.62-1.28 18.93-0.93C19.24-0.58 19.60-0.32 20.02-0.13C20.44 0.05 20.90 0.14 21.40 0.14C21.90 0.14 22.35 0.04 22.74-0.16C23.13-0.36 23.48-0.64 23.80-1.00L23.23-1.61C22.98-1.33 22.71-1.11 22.42-0.96C22.14-0.81 21.80-0.73 21.42-0.73C21.04-0.73 20.71-0.81 20.41-0.96C20.11-1.11 19.85-1.33 19.64-1.61C19.44-1.89 19.27-2.23 19.16-2.62C19.04-3.02 18.98-3.46 18.98-3.96C18.98-4.45 19.04-4.89 19.16-5.28C19.28-5.67 19.45-6.01 19.67-6.28C19.88-6.56 20.14-6.77 20.45-6.92C20.75-7.07 21.09-7.14 21.47-7.14C21.80-7.14 22.10-7.07 22.35-6.94C22.60-6.81 22.83-6.63 23.04-6.41L23.60-7.04C23.37-7.30 23.08-7.53 22.72-7.72C22.36-7.92 21.94-8.02 21.46-8.02C20.95-8.02 20.49-7.92 20.06-7.73C19.63-7.55 19.26-7.28 18.95-6.92C18.64-6.57 18.39-6.14 18.22-5.64C18.04-5.14 17.95-4.57 17.95-3.94ZM25.26-7.87L25.26 0L29.92 0L29.92-0.85L26.26-0.85L26.26-3.71L29.24-3.71L29.24-4.56L26.26-4.56L26.26-7.03L29.80-7.03L29.80-7.87ZM33.41-0.59L33.41 0L38.35 0L38.35-0.85L36.13-0.85C35.93-0.85 35.72-0.84 35.50-0.83C35.27-0.81 35.06-0.80 34.85-0.78C35.30-1.25 35.72-1.70 36.10-2.12C36.48-2.54 36.81-2.94 37.09-3.33C37.36-3.72 37.58-4.09 37.73-4.46C37.89-4.82 37.97-5.18 37.97-5.54C37.97-6.22 37.76-6.77 37.36-7.18C36.95-7.59 36.39-7.80 35.68-7.80C35.17-7.80 34.74-7.69 34.38-7.48C34.02-7.27 33.68-6.99 33.36-6.64L33.92-6.07C34.15-6.33 34.40-6.55 34.67-6.73C34.94-6.91 35.24-7.00 35.56-7.00C36.04-7.00 36.41-6.86 36.65-6.58C36.89-6.30 37.01-5.94 37.01-5.50C37.01-5.18 36.93-4.86 36.77-4.53C36.61-4.20 36.38-3.83 36.07-3.44C35.77-3.04 35.39-2.61 34.94-2.15C34.50-1.68 33.98-1.16 33.41-0.59ZM41.88 0.14C42.65 0.14 43.25-0.20 43.68-0.89C44.11-1.58 44.33-2.56 44.33-3.85C44.33-5.14 44.11-6.12 43.68-6.79C43.25-7.46 42.65-7.80 41.88-7.80C41.10-7.80 40.50-7.46 40.07-6.79C39.64-6.12 39.42-5.14 39.42-3.85C39.42-2.56 39.64-1.58 40.07-0.89C40.50-0.20 41.10 0.14 41.88 0.14ZM41.88-0.65C41.43-0.65 41.07-0.90 40.79-1.41C40.52-1.92 40.38-2.73 40.38-3.85C40.38-4.41 40.42-4.89 40.49-5.29C40.56-5.69 40.66-6.02 40.79-6.27C40.93-6.52 41.08-6.71 41.27-6.83C41.45-6.95 41.66-7.01 41.88-7.01C42.10-7.01 42.31-6.95 42.49-6.83C42.67-6.71 42.82-6.52 42.95-6.27C43.09-6.02 43.19-5.69 43.26-5.29C43.33-4.89 43.37-4.41 43.37-3.85C43.37-3.29 43.33-2.81 43.26-2.41C43.19-2.00 43.09-1.67 42.95-1.41C42.82-1.15 42.67-0.96 42.49-0.83C42.31-0.71 42.10-0.65 41.88-0.65ZM45.80-0.82L45.80 0L50.12 0L50.12-0.82L48.54-0.82L48.54-7.66L47.78-7.66C47.58-7.53 47.34-7.42 47.08-7.33C46.82-7.23 46.52-7.16 46.16-7.09L46.16-6.46L47.56-6.46L47.56-0.82ZM53.64-3.72C53.16-3.72 52.80-3.86 52.57-4.15C52.34-4.44 52.22-4.84 52.22-5.34C52.22-5.59 52.26-5.82 52.33-6.02C52.39-6.23 52.49-6.41 52.61-6.56C52.73-6.71 52.87-6.82 53.03-6.90C53.20-6.98 53.37-7.02 53.56-7.02C54.04-7.02 54.43-6.83 54.72-6.44C55.01-6.06 55.18-5.49 55.25-4.74C54.99-4.37 54.72-4.11 54.44-3.95C54.15-3.80 53.89-3.72 53.64-3.72ZM51.98-1.28L51.43-0.66C51.64-0.43 51.90-0.24 52.21-0.08C52.51 0.07 52.87 0.14 53.28 0.14C53.66 0.14 54.03 0.07 54.38-0.09C54.73-0.25 55.04-0.49 55.31-0.83C55.58-1.17 55.80-1.61 55.96-2.15C56.12-2.69 56.20-3.35 56.20-4.12C56.20-4.73 56.13-5.27 56.00-5.73C55.87-6.19 55.68-6.57 55.45-6.88C55.21-7.19 54.93-7.42 54.61-7.57C54.28-7.72 53.93-7.80 53.56-7.80C53.25-7.80 52.96-7.74 52.69-7.62C52.41-7.50 52.17-7.33 51.97-7.12C51.76-6.90 51.60-6.64 51.48-6.34C51.36-6.04 51.30-5.71 51.30-5.34C51.30-4.55 51.50-3.96 51.89-3.56C52.28-3.17 52.81-2.98 53.47-2.98C53.79-2.98 54.11-3.06 54.43-3.24C54.75-3.42 55.03-3.66 55.27-3.96C55.26-3.34 55.20-2.83 55.09-2.41C54.98-2.00 54.83-1.66 54.65-1.40C54.46-1.14 54.25-0.95 54.01-0.84C53.77-0.73 53.52-0.67 53.24-0.67C53.00-0.67 52.77-0.73 52.55-0.84C52.33-0.95 52.14-1.10 51.98-1.28Z"
                            transform="translate(-0.504, 8.016)" />
                    </g>
                </g>
            </g>
        </g>
    </g>
</svg>