<svg xmlns="http://www.w3.org/2000/svg" width="64" height="64" id="sun"><g color="#000" transform="translate(0 -988.362)"><g transform="translate(16 -16)"><circle cx="16" cy="1036.362" r="16" fill="#ffe90a" overflow="visible"></circle><path fill="#ffcb0a" d="M16 1020.362a16 16 0 0 0-15.176 11H8c.554 0 1 .446 1 1s-.446 1-1 1H6c-.554 0-1 .446-1 1s.446 1 1 1h4c.554 0 1 .446 1 1s-.446 1-1 1H.05a16 16 0 0 0 1.13 5H13c.554 0 1 .446 1 1s-.446 1-1 1h-2c-.554 0-1 .446-1 1s.446 1 1 1h4c.554 0 1 .446 1 1s-.446 1-1 1H5.447a16 16 0 0 0 2.844 2h15.445a16 16 0 0 0 3.871-3H25c-.554 0-1-.446-1-1s.446-1 1-1h4.209a16 16 0 0 0 1.967-4H20c-.554 0-1-.446-1-1s.446-1 1-1h2c.554 0 1-.446 1-1s-.446-1-1-1h-1c-.554 0-1-.446-1-1s.446-1 1-1h10.947a16 16 0 0 0-.267-2H16c-.554 0-1-.446-1-1s.446-1 1-1h15.156a16 16 0 0 0-1.322-3H14c-.554 0-1-.446-1-1s.446-1 1-1h4.5c-.089 0-.168-.03-.25-.05a.983.983 0 0 0 .75-.95.983.983 0 0 0-.75-.95c.082-.02.161-.05.25-.05H16c-.554 0-1-.446-1-1s.446-1 1-1h7.736a16 16 0 0 0-7.736-2zm-4 11a1 1 0 0 1 1 1 1 1 0 0 1-1 1 1 1 0 0 1-1-1 1 1 0 0 1 1-1zm17 6c-.554 0-1 .446-1 1s.446 1 1 1h2.705a16 16 0 0 0 .258-2H29zm-23 7a1 1 0 0 0-1 1 1 1 0 0 0 1 1 1 1 0 0 0 1-1 1 1 0 0 0-1-1z" overflow="visible"></path></g><path fill="#fff" d="m40.13 998.242-.621-2.38-2.38-.62 2.38-.62.62-2.38.62 2.38 2.38.62-2.38.62zM15 1007.355l-.413-1.586-1.587-.414 1.587-.413.413-1.587.414 1.587 1.586.413-1.586.414zM11.87 1035.242l-.568-2.182-2.181-.568 2.181-.569.569-2.181.568 2.181 2.182.569-2.182.568zM49.62 1009.862l-.517-1.983-1.983-.517 1.983-.517.517-1.983.517 1.983 1.983.517-1.983.517zM16.502 1001.363l-.31-1.19-1.19-.31 1.19-.31.31-1.19.31 1.19 1.19.31-1.19.31zM53.125 1039.23l-.388-1.488-1.487-.388 1.487-.387.388-1.488.387 1.488 1.488.387-1.488.388z" overflow="visible"></path></g></svg>