<svg xmlns="http://www.w3.org/2000/svg" xmlns:xlink="http://www.w3.org/1999/xlink" version="1.0"
    preserveAspectRatio="xMidYMid meet" color-interpolation-filters="sRGB" style="margin: auto;"
    viewBox="140 70.95 60 67.73">
    <g transform="translate(76.14440155029297,70.9482192993164)">
        <g transform="translate(63.85559844970703,0)">
            <g>
                <rect fill-opacity="0" stroke-width="2" x="0" y="0" width="59.99999999999999"
                    height="67.72926355714091" />
                <svg x="0" y="0" width="59.99999999999999" height="67.72926355714091" style="overflow: visible;"
                    fill="#E93637">
                    <svg xmlns="http://www.w3.org/2000/svg" xmlns:xlink="http://www.w3.org/1999/xlink" version="1.1"
                        x="0px" y="0px"
                        viewBox="7.9999847412109375 2.924999713897705 83.60501861572266 94.37499237060547"
                        xml:space="preserve">
                        <g transform="matrix(-1,0,0,1,99.605,0)">
                            <path
                                d="M49.9,30l-1.1,0c-7.7,0.2-13.5,2.2-17.4,6.1c-4.7,4.8-4.7,10.5-4.7,10.8c0,0.1,0.1,0.3,0.3,0.3h44.8c0.1,0,0.3-0.1,0.3-0.3  c0-0.2,0-6-4.7-10.8C63.4,32.2,57.6,30.1,49.9,30z M32.7,44.6c-0.8,0-1.4-0.6-1.4-1.4c0-0.8,0.6-1.4,1.4-1.4c0.8,0,1.4,0.6,1.4,1.4  C34.1,44,33.5,44.6,32.7,44.6z M41.4,36.3c-0.8,0-1.4-0.6-1.4-1.4c0-0.8,0.6-1.4,1.4-1.4s1.4,0.6,1.4,1.4  C42.7,35.7,42.1,36.3,41.4,36.3z M65.5,41.6c-0.8,0-1.4-0.6-1.4-1.4s0.6-1.4,1.4-1.4s1.4,0.6,1.4,1.4S66.2,41.6,65.5,41.6z" />
                            <path
                                d="M30.6,65.8h37.4c1.9,0,3.5-1.2,3.5-2.7v-2.5H59.8l-21.1,3.2l-8.1-3.2h-3.5V63C27.2,64.5,28.7,65.8,30.6,65.8z" />
                            <path
                                d="M88.1,23.9l-34.6-20c-2.2-1.3-5-1.3-7.2,0l-34.6,20C9.4,25.2,8,27.6,8,30.1v40c0,2.6,1.4,5,3.6,6.2l34.6,20  c1.1,0.6,2.3,1,3.6,1s2.5-0.3,3.6-1l34.6-20c2.2-1.3,3.6-3.7,3.6-6.2v-40C91.7,27.6,90.3,25.2,88.1,23.9z M73.8,63  c0,2.8-2.6,5-5.8,5H30.6c-3.2,0-5.8-2.3-5.8-5v-4.9h49V63z M25.2,53.8c0-1.1,0.9-1.9,1.9-1.9h44.4c1.1,0,1.9,0.9,1.9,1.9  c0,1.1-0.9,1.9-1.9,1.9H27.1C26,55.8,25.2,54.9,25.2,53.8z M71.7,49.5H27c-1.4,0-2.6-1.2-2.6-2.6c0-0.3,0-7,5.4-12.4  c4.3-4.3,10.7-6.6,18.9-6.8c0.1,0,1.1,0,1.3,0c8.3,0.2,14.6,2.5,18.9,6.8c5.4,5.5,5.4,12.2,5.4,12.4C74.3,48.3,73.1,49.5,71.7,49.5z  " />
                        </g>
                    </svg>
                </svg>
            </g>
        </g>
    </g>
</svg>